<svg width="168" height="28" viewBox="0 0 168 28" fill="none" xmlns="http://www.w3.org/2000/svg">
    <path d="M166.189 3.54667C162.769 6.72 157.74 8.77333 153.112 9.14667C154.923 6.53333 156.331 3.92 156.331 1.30667C156.331 1.30667 156.331 1.30667 156.331 1.12V0C156.331 1.12 151.302 2.42667 150.497 2.61333C148.686 3.17333 141.444 4.29333 136.817 8.4C135.006 10.08 134.604 11.76 134 14C134.805 11.3867 137.018 10.08 140.237 8.58667C143.657 7.28 149.089 6.72 149.29 6.53333C148.888 7.09333 148.485 7.65333 148.485 7.65333C147.278 9.33333 146.272 11.0133 146.071 12.88V13.44H146.675C150.899 13.0667 154.923 11.9467 158.746 10.2667C162.97 8.21333 165.183 5.22667 168 1.86667C167.799 2.05333 166.391 3.17333 166.189 3.54667Z" fill="#0F1112"/>
    <path d="M121.673 11.838C121.673 14.6901 122.862 17.162 124.843 19.0634C126.825 20.9648 129.401 22.1056 132.374 22.1056C133.166 22.1056 133.761 22.1056 134.553 21.9155C134.553 21.9155 134.752 21.9155 134.95 21.9155C135.544 21.7254 136.139 21.5352 136.733 21.3451C136.931 21.3451 136.931 21.1549 137.13 21.1549C137.328 21.1549 137.328 20.9648 137.526 20.9648C137.922 20.3944 138.12 19.6338 137.922 19.0634C137.922 18.8732 137.724 18.8732 137.724 18.6831C137.724 18.493 137.526 18.493 137.526 18.3028C136.931 17.9225 136.139 17.7324 135.544 17.9225C135.346 17.9225 135.346 17.9225 135.148 18.1127C134.95 18.1127 134.95 18.1127 134.752 18.3028C134.157 18.493 133.563 18.493 132.77 18.493C130.987 18.493 129.203 17.7324 128.014 16.5916C126.825 15.4507 126.032 13.7394 126.032 12.0282C126.032 10.3169 126.825 8.60563 128.014 7.46479C129.203 6.32394 130.987 5.56338 132.77 5.56338C133.166 5.56338 133.761 5.56338 134.157 5.75352H134.355C134.752 5.75352 135.148 5.94366 135.346 6.1338C135.544 6.1338 135.544 6.1338 135.742 6.32394C135.941 6.32394 135.941 6.32394 136.139 6.32394C136.931 6.32394 137.526 5.94366 137.724 5.1831C137.724 4.99296 137.724 4.99296 137.922 4.80282C137.922 4.61268 137.922 4.61268 137.922 4.42254C137.922 3.66197 137.526 3.09155 136.733 2.90141C136.535 2.90141 136.337 2.71127 136.139 2.71127C135.941 2.71127 135.742 2.52113 135.544 2.52113C134.553 2.33099 133.563 2.14084 132.572 2.14084C129.599 2.14084 127.023 3.28169 125.042 5.1831C122.862 6.51409 121.673 8.98592 121.673 11.838ZM120.88 16.5916V11.4577V3.47183C120.88 2.90141 120.682 2.52113 120.286 2.14084C120.087 1.9507 119.493 1.76056 119.097 1.76056C118.502 1.76056 118.106 1.9507 117.71 2.33099C117.313 2.71127 117.115 3.09155 117.115 3.66197V11.6479C117.115 13.3592 116.322 15.0704 115.133 16.2113C113.944 17.3521 112.161 18.1127 110.377 18.1127C108.594 18.1127 106.81 17.3521 105.622 16.2113C104.433 15.0704 103.64 13.3592 103.64 11.6479V3.47183C103.64 2.90141 103.442 2.52113 103.045 2.14084C102.649 1.9507 102.253 1.76056 101.658 1.76056C101.064 1.76056 100.667 1.9507 100.271 2.33099C99.8747 2.71127 99.6766 3.09155 99.6766 3.66197V11.6479C99.6766 14.5 100.866 16.9718 102.847 18.8732C104.829 20.7746 107.405 21.9155 110.377 21.9155C111.368 21.9155 112.359 21.7254 113.35 21.5352C113.548 21.5352 113.746 21.5352 113.746 21.3451C114.539 21.1549 115.332 20.7747 115.926 20.3944L116.521 20.0141L116.124 20.7746C115.926 21.1549 115.926 21.3451 115.728 21.7254C115.53 22.1056 115.332 22.2958 115.133 22.4859C114.737 22.8662 114.341 23.0563 113.746 23.2465C113.152 23.4366 112.755 23.4366 111.963 23.4366C111.368 23.4366 110.972 23.6268 110.576 24.007C110.179 24.3873 109.981 24.7676 109.981 25.338C109.981 25.9085 110.179 26.2887 110.576 26.669L110.774 26.8592C111.17 27.0493 111.566 27.2394 111.963 27.2394C113.152 27.2394 114.143 27.0493 115.133 26.669C115.332 26.669 115.53 26.4789 115.53 26.4789C116.322 26.0986 117.115 25.7183 117.71 24.9578C119.097 23.6268 119.889 21.7254 120.286 20.2042C120.88 18.3028 120.88 16.9718 120.88 16.5916ZM78.473 9.17606C78.473 9.3662 78.473 9.3662 78.2748 9.55634C78.2748 9.74648 78.2748 9.93662 78.2748 9.93662V25.9085C78.2748 26.4789 78.473 27.0493 78.8693 27.4296C79.2657 27.8099 79.662 28 80.2565 28C80.851 28 81.2473 27.8099 81.6436 27.4296C82.04 27.0493 82.2381 26.4789 82.2381 25.9085V20.5845L82.04 20.3944C81.8418 20.3944 81.8418 20.2042 81.6436 20.2042C81.2473 19.8239 81.0491 19.4437 80.851 19.0634V18.8732V18.6831C80.851 18.1127 80.851 17.7324 81.0491 17.3521C81.0491 17.3521 81.0491 17.162 81.2473 17.162L81.4455 16.9718C81.6436 16.7817 82.04 16.5916 82.2381 16.4014H82.4363V10.3169C83.0308 8.41549 84.4179 6.70423 86.3996 5.94366C86.3996 5.75352 86.7959 5.56338 86.9941 5.56338C87.3904 5.56338 87.7867 5.37324 88.1831 5.37324H88.3812C90.1647 5.37324 91.9482 6.1338 93.1372 7.27465C94.3261 8.41549 95.1188 10.1268 95.1188 11.838C95.1188 13.5493 94.3261 15.2606 93.1372 16.4014C91.9482 17.5423 90.1647 18.3028 88.3812 18.3028C87.1922 18.3028 86.2014 18.1127 85.2106 17.5423C85.0124 17.3521 84.8143 17.3521 84.6161 17.162C84.4179 16.9718 84.2198 16.9718 84.0216 16.7817C83.4271 16.4014 82.6345 16.2113 82.04 16.5916C81.8418 16.5916 81.8418 16.7817 81.6436 16.7817C81.4455 16.7817 81.4455 16.9718 81.2473 16.9718C81.2473 17.3521 81.2473 17.9225 81.2473 18.3028C81.2473 18.6831 81.4455 19.2535 81.8418 19.4437C82.6345 20.0141 83.4271 20.5845 84.4179 20.9648C84.6161 20.9648 84.8143 21.1549 85.0124 21.1549C86.2014 21.5352 87.3904 21.7254 88.5794 21.7254C91.5518 21.7254 94.128 20.5845 95.9115 18.6831C97.8931 16.7817 99.0821 14.3099 99.0821 11.6479C99.0821 7.65493 96.7041 4.42254 93.3353 2.71127C92.7408 2.33099 91.9482 2.14085 91.1555 1.9507C90.3629 1.9507 89.7684 1.76056 88.7775 1.76056H88.5794C85.2106 1.76056 82.04 3.28169 80.0583 5.94366C79.662 6.51408 79.2657 6.89437 79.0675 7.46479C78.8693 8.03521 78.6712 8.60563 78.473 9.17606ZM77.284 9.17606C77.0859 8.60563 76.8877 8.03521 76.6895 7.46479C76.4914 6.89437 76.095 6.32394 75.6987 5.94366C73.7171 3.47183 70.7446 1.76056 67.1777 1.76056H66.9795C66.1868 1.76056 65.3942 1.9507 64.6015 2.14084C63.8089 2.33099 63.2144 2.52113 62.4217 2.90141C59.0529 4.61268 56.675 8.03521 56.675 11.838C56.675 14.6901 57.8639 17.162 59.8456 18.8732C61.8272 20.7746 64.4034 21.9155 67.1777 21.9155C68.3666 21.9155 69.5556 21.7254 70.7446 21.3451C70.9428 21.3451 71.1409 21.1549 71.3391 21.1549C72.3299 20.7747 73.1226 20.2042 73.9152 19.6338C74.1134 19.6338 74.1134 19.4437 74.1134 19.2535C74.1134 19.0634 74.3116 19.0634 74.3116 18.8732C74.5097 18.3028 74.5097 17.5423 74.1134 16.9718C74.1134 16.7817 73.9152 16.7817 73.7171 16.7817C73.5189 16.7817 73.5189 16.5916 73.3207 16.5916C72.7263 16.4014 71.9336 16.4014 71.3391 16.7817C71.1409 16.9718 70.9428 16.9718 70.7446 17.162C70.5464 17.3521 70.3483 17.3521 70.1501 17.5423C69.1593 18.1127 67.9703 18.3028 66.9795 18.3028C65.196 18.3028 63.4125 17.5423 62.2236 16.4014C61.0346 15.2606 60.2419 13.5493 60.2419 11.838C60.2419 10.1268 61.0346 8.41549 62.2236 7.27465C63.4125 6.1338 65.196 5.37324 66.9795 5.37324H67.1777C67.574 5.37324 67.9703 5.37324 68.3666 5.56338C68.763 5.56338 69.1593 5.75352 69.5556 5.94366C71.3391 6.70423 72.9244 8.22535 73.5189 10.3169V15.831H73.7171C74.1134 16.0211 74.3116 16.2113 74.5097 16.4014L74.7079 16.5916L74.9061 16.7817C75.1042 17.162 75.3024 17.7324 75.1042 18.1127V18.3028V18.493C74.9061 18.8732 74.7079 19.2535 74.3116 19.6338C74.1134 19.6338 74.1134 19.8239 73.9152 19.8239L73.7171 20.0141V20.2042C73.7171 20.3944 73.9152 20.3944 73.9152 20.5845C74.3116 21.1549 74.9061 21.5352 75.5005 21.5352C76.095 21.5352 76.4914 21.3451 76.8877 20.9648C77.284 20.5845 77.4822 20.0141 77.4822 19.4437V9.93662C77.4822 9.74648 77.4822 9.55634 77.4822 9.55634C77.284 9.3662 77.284 9.3662 77.284 9.17606ZM35.0751 9.17606C35.0751 9.3662 35.0751 9.3662 34.8769 9.55634C34.8769 9.74648 34.8769 9.93662 34.8769 9.93662V25.9085C34.8769 26.4789 35.0751 27.0493 35.4714 27.4296C35.8677 27.8099 36.264 28 36.8585 28C37.453 28 37.8494 27.8099 38.2457 27.4296C38.642 27.0493 38.8402 26.4789 38.8402 25.9085V20.5845L38.642 20.3944C38.4439 20.3944 38.4439 20.2042 38.2457 20.2042C37.8494 19.8239 37.6512 19.4437 37.453 19.0634V18.8732V18.6831C37.453 18.1127 37.453 17.7324 37.6512 17.3521C37.6512 17.3521 37.6512 17.162 37.8494 17.162L38.0475 16.9718C38.2457 16.7817 38.4439 16.5916 38.8402 16.4014H39.0383V10.3169C39.6328 8.41549 41.02 6.70423 43.0016 5.94366C43.0016 5.75352 43.398 5.56338 43.7943 5.56338C44.1906 5.56338 44.5869 5.37324 44.9833 5.37324H45.1814C46.9649 5.37324 48.7484 6.1338 49.9374 7.27465C51.1264 8.41549 51.919 10.1268 51.919 11.838C51.919 13.5493 51.1264 15.2606 49.9374 16.4014C48.7484 17.5423 46.9649 18.3028 45.1814 18.3028C43.9924 18.3028 43.0016 18.1127 42.0108 17.5423C41.8126 17.3521 41.6145 17.3521 41.4163 17.162C41.2181 16.9718 41.02 16.9718 40.8218 16.7817C40.2273 16.4014 39.4347 16.2113 38.8402 16.5916C38.642 16.5916 38.642 16.7817 38.4438 16.7817C38.2457 16.7817 38.2457 16.9718 38.0475 16.9718C37.6512 17.3521 37.6512 17.9225 37.6512 18.3028C37.6512 18.6831 37.8494 19.2535 38.2457 19.4437C39.0383 20.0141 39.831 20.5845 40.8218 20.9648C41.02 20.9648 41.2181 21.1549 41.4163 21.1549C42.6053 21.5352 43.7943 21.7254 44.9833 21.7254C47.9557 21.7254 50.5319 20.5845 52.3153 18.6831C54.297 16.7817 55.486 14.3099 55.486 11.6479C55.486 7.65493 53.108 4.42254 49.7392 2.71127C49.1447 2.33099 48.3521 2.14085 47.5594 1.9507C46.9649 1.9507 46.3704 1.76056 45.5778 1.76056H45.3796C42.0108 1.76056 38.8402 3.28169 36.8585 5.94366C36.264 6.32394 36.0659 6.89437 35.6696 7.46479C35.4714 8.03521 35.2732 8.60563 35.0751 9.17606ZM25.9595 10.1268C25.365 10.1268 24.9687 10.3169 24.5724 10.6972C24.176 11.0775 23.9779 11.4577 23.9779 12.0282C23.9779 12.5986 24.176 12.9789 24.5724 13.3592C24.9687 13.7394 25.365 13.9296 25.9595 13.9296H29.5265C30.121 13.9296 30.5173 13.7394 30.9136 13.3592L31.1118 13.169C31.3099 12.7887 31.5081 12.4085 31.5081 12.0282C31.5081 11.4577 31.3099 11.0775 30.9136 10.6972C30.5173 10.3169 30.121 10.1268 29.5265 10.1268H25.9595ZM10.899 11.4577C10.899 14.3099 12.088 16.7817 14.0697 18.6831C16.0513 20.5845 18.6274 21.7254 21.5999 21.7254C22.3926 21.7254 22.987 21.7254 23.7797 21.5352C23.7797 21.5352 23.9779 21.5352 24.176 21.5352C24.7705 21.3451 25.365 21.1549 25.9595 20.9648C26.3558 20.7746 26.7522 20.3944 26.9503 20.0141C27.1485 19.6338 27.1485 19.0634 26.9503 18.6831C26.9503 18.493 26.7522 18.493 26.7522 18.3028C26.7522 18.1127 26.554 18.1127 26.554 17.9225C25.9595 17.5423 25.1669 17.3521 24.5724 17.5423C24.3742 17.5423 24.3742 17.5423 24.176 17.7324C23.9779 17.7324 23.9779 17.7324 23.7797 17.9225C23.1852 18.1127 22.5907 18.1127 21.7981 18.1127C20.0146 18.1127 18.2311 17.3521 17.0421 16.2113C15.8531 15.0704 15.0605 13.3592 15.0605 11.6479C15.0605 9.93662 15.8531 8.22535 17.0421 7.08451C18.2311 5.94366 20.0146 5.1831 21.7981 5.1831C22.1944 5.1831 22.7889 5.1831 23.1852 5.37324H23.3834C23.7797 5.37324 24.176 5.56338 24.3742 5.75352C24.5724 5.75352 24.5724 5.75352 24.7705 5.94366C24.9687 5.94366 24.9687 5.94366 25.1669 5.94366C25.9595 5.94366 26.554 5.56338 26.7522 4.80282C26.7522 4.61268 26.7522 4.61268 26.9503 4.42254C26.9503 4.2324 26.9503 4.23239 26.9503 4.04225C26.9503 3.28169 26.554 2.71127 25.7613 2.52113C25.5632 2.52113 25.365 2.33099 25.1669 2.33099C24.9687 1.76056 24.7705 1.76056 24.5724 1.76056C23.5815 1.57042 22.5907 1.38028 21.5999 1.38028C18.6274 1.38028 15.8531 2.52113 14.0697 4.2324C12.088 6.1338 10.899 8.60564 10.899 11.4577ZM7.92657 1H1.98164C1.38715 1 0.990821 1.19014 0.594493 1.57042C0.198164 1.9507 0 2.33099 0 2.90141C0 3.47183 0.198164 3.85211 0.594493 4.2324C0.990821 4.61268 1.38715 4.80282 1.98164 4.80282H5.94493V4.99296V20.2042C5.94493 20.7747 6.14309 21.1549 6.53942 21.5352C6.93575 21.9155 7.33207 22.1056 7.92657 22.1056C8.52106 22.1056 8.91739 21.9155 9.31372 21.5352C9.71004 21.1549 9.90821 20.7747 9.90821 20.2042V1.19014L7.92657 1Z" fill="#0F1112"/>
</svg>
